<svg width="1440" height="1024" viewBox="0 0 1440 1024" fill="none" xmlns="http://www.w3.org/2000/svg">
<g clip-path="url(#clip0_1_3)">
<rect width="1440" height="1024" fill="#EEEEEE"/>
<g filter="url(#filter0_d_1_3)">
<ellipse cx="1460.5" cy="849" rx="314.5" ry="315" fill="#EEEEEE"/>
<ellipse cx="1460.5" cy="849" rx="314.5" ry="315" stroke="#76ABAE"/>
</g>
<rect x="1170" y="396" width="554" height="501" fill="#EEEEEE"/>
<path d="M453.5 500C453.5 833.579 120.2 1105.5 -293 1105.5C-706.2 1105.5 -1039.5 833.579 -1039.5 500C-1039.5 166.421 -706.2 -105.5 -293 -105.5C120.2 -105.5 453.5 166.421 453.5 500Z" stroke="#76ABAE" stroke-width="9"/>
<g filter="url(#filter1_d_1_3)">
<path d="M70 482C70 799.007 -248.628 1065 -654 1065C-1059.37 1065 -1378 799.007 -1378 482C-1378 164.993 -1059.37 -101 -654 -101C-248.628 -101 70 164.993 70 482Z" stroke="#76ABAE" stroke-opacity="0.4" stroke-width="54" shape-rendering="crispEdges"/>
</g>
<ellipse cx="1535.5" cy="857" rx="314.5" ry="315" fill="#76ABAE"/>
<g filter="url(#filter2_d_1_3)">
<path d="M2136 -483C2136 -165.993 1817.37 100 1412 100C1006.63 100 688 -165.993 688 -483C688 -800.007 1006.63 -1066 1412 -1066C1817.37 -1066 2136 -800.007 2136 -483Z" stroke="#76ABAE" stroke-opacity="0.4" stroke-width="54" shape-rendering="crispEdges"/>
</g>
</g>
<defs>
<filter id="filter0_d_1_3" x="1141.5" y="533.5" width="638" height="639" filterUnits="userSpaceOnUse" color-interpolation-filters="sRGB">
<feFlood flood-opacity="0" result="BackgroundImageFix"/>
<feColorMatrix in="SourceAlpha" type="matrix" values="0 0 0 0 0 0 0 0 0 0 0 0 0 0 0 0 0 0 127 0" result="hardAlpha"/>
<feOffset dy="4"/>
<feGaussianBlur stdDeviation="2"/>
<feComposite in2="hardAlpha" operator="out"/>
<feColorMatrix type="matrix" values="0 0 0 0 0 0 0 0 0 0 0 0 0 0 0 0 0 0 0.25 0"/>
<feBlend mode="normal" in2="BackgroundImageFix" result="effect1_dropShadow_1_3"/>
<feBlend mode="normal" in="SourceGraphic" in2="effect1_dropShadow_1_3" result="shape"/>
</filter>
<filter id="filter1_d_1_3" x="-1409" y="-128" width="1510" height="1228" filterUnits="userSpaceOnUse" color-interpolation-filters="sRGB">
<feFlood flood-opacity="0" result="BackgroundImageFix"/>
<feColorMatrix in="SourceAlpha" type="matrix" values="0 0 0 0 0 0 0 0 0 0 0 0 0 0 0 0 0 0 127 0" result="hardAlpha"/>
<feOffset dy="4"/>
<feGaussianBlur stdDeviation="2"/>
<feComposite in2="hardAlpha" operator="out"/>
<feColorMatrix type="matrix" values="0 0 0 0 0 0 0 0 0 0 0 0 0 0 0 0 0 0 0.25 0"/>
<feBlend mode="normal" in2="BackgroundImageFix" result="effect1_dropShadow_1_3"/>
<feBlend mode="normal" in="SourceGraphic" in2="effect1_dropShadow_1_3" result="shape"/>
</filter>
<filter id="filter2_d_1_3" x="657" y="-1093" width="1510" height="1228" filterUnits="userSpaceOnUse" color-interpolation-filters="sRGB">
<feFlood flood-opacity="0" result="BackgroundImageFix"/>
<feColorMatrix in="SourceAlpha" type="matrix" values="0 0 0 0 0 0 0 0 0 0 0 0 0 0 0 0 0 0 127 0" result="hardAlpha"/>
<feOffset dy="4"/>
<feGaussianBlur stdDeviation="2"/>
<feComposite in2="hardAlpha" operator="out"/>
<feColorMatrix type="matrix" values="0 0 0 0 0 0 0 0 0 0 0 0 0 0 0 0 0 0 0.25 0"/>
<feBlend mode="normal" in2="BackgroundImageFix" result="effect1_dropShadow_1_3"/>
<feBlend mode="normal" in="SourceGraphic" in2="effect1_dropShadow_1_3" result="shape"/>
</filter>
<clipPath id="clip0_1_3">
<rect width="1440" height="1024" fill="white"/>
</clipPath>
</defs>
</svg>
